<svg enable-background="new 0 0 512 512" version="1.1" viewBox="0 0 512 512" xml:space="preserve" xmlns="http://www.w3.org/2000/svg">
<g>
  <path d="m301.83 164.36c-8.601 0-17.056 0.638-25.327 1.85 5.588-23.824 4.815-50.185-2.89-75.442-13.125-43.02-44.709-77.502-82.427-89.987-6.229-2.061-13.078 0.029-17.095 5.215-23.486 30.327-30.778 74.474-19.444 116.2-42.68-6.906-85.812 4.955-113.52 31.474-4.739 4.535-6.102 11.568-3.402 17.546 16.355 36.208 53.947 64.02 98.103 72.58 6.187 1.2 12.392 1.994 18.572 2.408-16.713 26.694-26.392 58.221-26.392 91.972 0 95.844 77.975 173.82 173.82 173.82s173.82-77.975 173.82-173.82-77.976-173.82-173.82-173.82zm-109.66-129.74c23.58 11.905 42.926 35.928 51.851 65.182 6.122 20.065 6.8 40.824 2.455 59.321-4.237-13.775-8.188-26.519-9.067-29.358-2.531-8.162-11.202-12.726-19.36-10.196-8.162 2.531-12.726 11.198-10.196 19.36 2.684 8.655 5.995 19.368 9.166 29.68-14.123-12.955-25.306-30.703-31.488-50.964-8.925-29.253-6.282-59.985 6.639-83.025zm-50.445 178.81c-30.026-5.82-55.939-22.553-70.241-44.762 21.564-15.255 51.853-21.093 81.878-15.27 5.482 1.062 10.824 2.493 15.986 4.25 8.628 15.014 19.672 28.137 32.361 38.533-7.855 5.554-15.228 11.746-22.05 18.494-12.225 1.596-25.103 1.244-37.934-1.245zm160.11 267.63c-78.782 0-142.88-64.094-142.88-142.88s64.094-142.88 142.88-142.88 142.88 64.094 142.88 142.88c0 78.783-64.095 142.88-142.88 142.88z"/>
  <path d="m301.83 225.08c-62.361 0-113.1 50.734-113.1 113.1s50.735 113.1 113.1 113.1c62.361 0 113.1-50.735 113.1-113.1s-50.736-113.1-113.1-113.1zm0 195.25c-45.299 0-82.154-36.854-82.154-82.154 0-45.299 36.854-82.154 82.154-82.154 45.299 0 82.154 36.854 82.154 82.154-1e-3 45.3-36.855 82.154-82.154 82.154z"/>
  <path d="m332.03 335.42h-24.454v-40.23c0-8.544-6.927-15.471-15.471-15.471s-15.471 6.927-15.471 15.471v56.127c0 8.544 7.1 15.047 15.645 15.047h39.753c8.544 0 15.471-6.927 15.471-15.471s-6.929-15.473-15.473-15.473z"/>
  <g fill="#fff" stroke-width=".789">
    <path d="m301.83 256.02c-2.8312 0-5.6303 0.14479-8.3887 0.42579-2.7583 0.28099-5.4769 0.69798-8.1484 1.2461s-5.2944 1.2279-7.8652 2.0293c-2.5709 0.80136-5.0886 1.7249-7.5449 2.7656-2.4563 1.0407-4.8518 2.1986-7.1797 3.4648-2.3279 1.2663-4.5878 2.6413-6.7734 4.1192-2.1857 1.4779-4.2986 3.0587-6.3281 4.7344s-3.9764 3.4452-5.8359 5.3047c-1.8595 1.8595-3.631 3.8084-5.3066 5.8379-1.6756 2.0295-3.2546 4.1405-4.7324 6.3262s-2.8549 4.4455-4.1211 6.7734c-1.2662 2.3279-2.4222 4.7234-3.4629 7.1797-1.0407 2.4563-1.9662 4.9741-2.7676 7.5449-0.80135 2.5708-1.4792 5.1957-2.0273 7.8672-0.54811 2.6715-0.96511 5.3902-1.2461 8.1484-0.28098 2.7583-0.42578 5.5555-0.42578 8.3867 0 2.8312 0.14479 5.6303 0.42578 8.3887 0.281 2.7583 0.69798 5.4769 1.2461 8.1484 0.54811 2.6715 1.226 5.2963 2.0273 7.8672s1.7268 5.0866 2.7676 7.543c1.0407 2.4563 2.1966 4.8517 3.4629 7.1797s2.6432 4.5897 4.1211 6.7754c1.4779 2.1857 3.0568 4.2967 4.7324 6.3262 1.6756 2.0295 3.4471 3.9764 5.3066 5.8359 1.8595 1.8595 3.8084 3.631 5.8379 5.3066 2.0295 1.6756 4.1405 3.2565 6.3262 4.7344s4.4455 2.8529 6.7734 4.1191c2.328 1.2662 4.7234 2.4222 7.1797 3.4629s4.9741 1.9662 7.5449 2.7676c2.5709 0.80135 5.1957 1.4792 7.8672 2.0273 2.6715 0.5481 5.3882 0.96511 8.1465 1.2461 2.7583 0.28098 5.5575 0.42578 8.3887 0.42578s5.6284-0.1448 8.3867-0.42578c2.7583-0.28099 5.4769-0.698 8.1484-1.2461 2.6715-0.5481 5.2964-1.226 7.8672-2.0273s5.0886-1.7269 7.5449-2.7676c2.4563-1.0407 4.8518-2.1967 7.1797-3.4629 2.3279-1.2662 4.5878-2.6413 6.7734-4.1191s4.2967-3.0588 6.3262-4.7344c2.0295-1.6756 3.9784-3.4472 5.8379-5.3066s3.6291-3.8064 5.3047-5.8359c1.6756-2.0295 3.2565-4.1405 4.7344-6.3262 1.4779-2.1856 2.8529-4.4474 4.1191-6.7754 1.2662-2.3279 2.4241-4.7233 3.4648-7.1797 1.0408-2.4564 1.9642-4.9721 2.7656-7.543 0.80139-2.5709 1.4812-5.1956 2.0293-7.8672s0.96505-5.3901 1.2461-8.1484 0.42571-5.5574 0.42579-8.3887c0-2.8312-0.14479-5.6284-0.42579-8.3867-0.28099-2.7583-0.69798-5.4769-1.2461-8.1484-0.54811-2.6715-1.226-5.2963-2.0273-7.8672-0.80137-2.5709-1.7268-5.0886-2.7676-7.5449-1.0407-2.4564-2.1986-4.8518-3.4648-7.1797-1.2662-2.3279-2.6413-4.5878-4.1191-6.7734-1.4779-2.1857-3.0568-4.2966-4.7324-6.3262s-3.4471-3.9784-5.3066-5.8379c-1.8595-1.8595-3.8084-3.631-5.8379-5.3066s-4.1405-3.2546-6.3262-4.7324c-2.1857-1.4779-4.4455-2.8549-6.7734-4.1211s-4.7234-2.4222-7.1797-3.4629c-2.4563-1.0407-4.9741-1.9643-7.5449-2.7656-2.5708-0.80135-5.1957-1.4812-7.8672-2.0293-2.6715-0.5481-5.3902-0.96511-8.1484-1.2461-2.7583-0.28099-5.5555-0.42579-8.3867-0.42579zm-9.7246 23.697c1.068 0 2.1101 0.10836 3.1172 0.31445 1.0071 0.2061 1.9788 0.51089 2.9043 0.90235 0.92546 0.39145 1.8039 0.86971 2.627 1.4258 0.82306 0.55606 1.5911 1.1887 2.291 1.8887s1.3326 1.468 1.8887 2.291c0.55607 0.82306 1.0343 1.7015 1.4258 2.627 0.39145 0.92545 0.69624 1.8972 0.90234 2.9043 0.2061 1.0071 0.31445 2.0492 0.31445 3.1172v40.23h24.453c1.068 0 2.112 0.1083 3.1191 0.31446 1.0072 0.20615 1.9788 0.51079 2.9043 0.90234 0.92555 0.39155 1.8038 0.8696 2.627 1.4258 0.82318 0.55618 1.591 1.1906 2.291 1.8906 0.70007 0.70007 1.3325 1.4659 1.8887 2.2891 0.55618 0.82318 1.0362 1.7034 1.4277 2.6289 0.39155 0.92555 0.69619 1.8972 0.90234 2.9043 0.20616 1.0072 0.31446 2.0492 0.31446 3.1172s-0.10836 2.112-0.31446 3.1191c-0.20609 1.0071-0.51089 1.9769-0.90234 2.9023-0.39145 0.92546-0.86972 1.8058-1.4258 2.6289-0.55607 0.82307-1.1907 1.5891-1.8906 2.2891-0.69993 0.69994-1.466 1.3346-2.2891 1.8906-0.82307 0.55606-1.7015 1.0343-2.627 1.4258-0.92546 0.39145-1.8972 0.69429-2.9043 0.90039s-2.0511 0.31445-3.1191 0.31445h-39.752c-1.0681 0-2.1131-0.10042-3.125-0.29492-1.0119-0.1945-1.9902-0.48194-2.9238-0.85352-0.93363-0.37157-1.823-0.82815-2.6562-1.3594s-1.6115-1.1371-2.3223-1.8106-1.3537-1.4147-1.9199-2.2129-1.0555-1.653-1.4551-2.5586-0.71104-1.8619-0.92187-2.8574c-0.21083-0.99551-0.32031-2.0316-0.32031-3.0996v-56.127c0-1.068 0.10835-2.1101 0.31445-3.1172 0.2061-1.0071 0.50894-1.9788 0.90039-2.9043s0.86971-1.8039 1.4258-2.627c0.55607-0.82307 1.1907-1.5911 1.8906-2.291 0.69993-0.69994 1.466-1.3326 2.2891-1.8887 0.82306-0.55607 1.7034-1.0343 2.6289-1.4258 0.92546-0.39146 1.8952-0.69625 2.9024-0.90235 1.0071-0.20609 2.0511-0.31445 3.1191-0.31445z"/>
    <path d="m301.84 195.3c-4.9241 0-9.7926 0.24961-14.59 0.73828-4.7973 0.48868-9.5236 1.2148-14.17 2.168-4.6463 0.95323-9.2124 2.1337-13.684 3.5274-4.4712 1.3936-8.8491 3.0006-13.121 4.8105-4.272 1.81-8.4376 3.8232-12.486 6.0254-4.0487 2.2022-7.98 4.5939-11.781 7.1641-3.8012 2.5702-7.4723 5.3183-11.002 8.2324-3.5297 2.9142-6.9184 5.9945-10.152 9.2285s-6.3144 6.6227-9.2285 10.152c-2.9142 3.5297-5.6622 7.2007-8.2324 11.002s-4.9619 7.7326-7.1641 11.781-4.2135 8.2143-6.0234 12.486c-1.81 4.272-3.4188 8.6499-4.8125 13.121-1.3936 4.4712-2.5722 9.0353-3.5254 13.682-0.95322 4.6463-1.6812 9.3746-2.1699 14.172-0.48867 4.7973-0.73828 9.6638-0.73828 14.588 0 4.9241 0.24958 9.7906 0.73828 14.588s1.2166 9.5256 2.1699 14.172c0.95328 4.6463 2.1317 9.2104 3.5254 13.682 1.3937 4.4712 3.0025 8.8491 4.8125 13.121 1.81 4.272 3.8232 8.4396 6.0254 12.488s4.5938 7.98 7.1641 11.781c2.5703 3.8012 5.3182 7.4723 8.2324 11.002 2.9142 3.5297 5.9945 6.9164 9.2285 10.15s6.6226 6.3144 10.152 9.2285 7.2007 5.6622 11.002 8.2324 7.7326 4.9639 11.781 7.166c4.0487 2.2021 8.2144 4.2135 12.486 6.0234 4.272 1.81 8.65 3.4169 13.121 4.8106s9.0355 2.5741 13.682 3.5273c4.6462 0.95323 9.3748 1.6793 14.172 2.168 4.7971 0.48868 9.664 0.74024 14.588 0.74024 4.9241 0 9.7906-0.25154 14.588-0.74024 4.7972-0.48869 9.5236-1.2147 14.17-2.168 4.6463-0.95326 9.2124-2.1336 13.684-3.5273s8.8471-3.0005 13.119-4.8106c4.272-1.81 8.4396-3.8232 12.488-6.0254s7.98-4.5938 11.781-7.1641c3.8012-2.5703 7.4723-5.3182 11.002-8.2324 3.5297-2.9142 6.9184-5.9945 10.152-9.2285 3.234-3.234 6.3124-6.6226 9.2266-10.152 2.9142-3.5297 5.6622-7.2007 8.2324-11.002 2.5702-3.8013 4.9638-7.7326 7.166-11.781 2.2022-4.0487 4.2135-8.2143 6.0234-12.486s3.4188-8.6499 4.8125-13.121c1.3937-4.4712 2.5722-9.0354 3.5254-13.682 0.95324-4.6462 1.6812-9.3747 2.1699-14.172s0.73828-9.664 0.73828-14.588c0-4.9241-0.2496-9.7906-0.73828-14.588-0.48867-4.7973-1.2167-9.5256-2.1699-14.172-0.95322-4.6463-2.1317-9.2104-3.5254-13.682s-3.0025-8.8491-4.8125-13.121c-1.81-4.272-3.8213-8.4376-6.0234-12.486-2.2021-4.0487-4.5938-7.98-7.1641-11.781s-5.3183-7.4723-8.2324-11.002c-2.9142-3.5297-5.9946-6.9184-9.2285-10.152s-6.6227-6.3144-10.152-9.2285c-3.5297-2.9142-7.2007-5.6622-11.002-8.2324-3.8012-2.5702-7.7326-4.9619-11.781-7.1641-4.0487-2.2021-8.2143-4.2154-12.486-6.0254-4.272-1.81-8.6499-3.4169-13.121-4.8105-4.4712-1.3937-9.0373-2.5741-13.684-3.5274-4.6463-0.95322-9.3726-1.6793-14.17-2.168-4.7973-0.48867-9.6638-0.73828-14.588-0.73828zm-6e-3 29.779c3.8978 0 7.7495 0.19716 11.547 0.58398s7.5409 0.96225 11.219 1.7168 7.2908 1.6898 10.83 2.793 7.0051 2.3759 10.387 3.8086c3.3816 1.4327 6.678 3.0244 9.8828 4.7676 3.2048 1.7432 6.3172 3.6374 9.3262 5.6719 3.009 2.0345 5.915 4.2089 8.709 6.5156s5.4752 4.7448 8.0352 7.3047c2.5599 2.5599 4.9999 5.2431 7.3066 8.0371 2.3068 2.794 4.4811 5.7 6.5156 8.709s3.9287 6.1194 5.6719 9.3242c1.7432 3.2048 3.3348 6.5031 4.7676 9.8848 1.4327 3.3816 2.7054 6.8474 3.8086 10.387 1.1032 3.5393 2.0384 7.1522 2.793 10.83 0.75455 3.6779 1.33 7.4214 1.7168 11.219 0.38683 3.7974 0.58399 7.6491 0.58399 11.547s-0.19714 7.7514-0.58399 11.549c-0.38685 3.7974-0.9622 7.5389-1.7168 11.217-0.7546 3.6779-1.6897 7.2908-2.793 10.83-1.1032 3.5393-2.3758 7.0051-3.8086 10.387-1.4328 3.3816-3.0243 6.6799-4.7676 9.8848-1.7432 3.2048-3.6373 6.3152-5.6719 9.3242s-4.2107 5.917-6.5176 8.7109c-2.3068 2.794-4.7447 5.4752-7.3047 8.0352-2.56 2.5599-5.2411 4.9979-8.0352 7.3047-2.794 2.3068-5.702 4.4811-8.7109 6.5156s-6.1194 3.9287-9.3242 5.6719c-3.2048 1.7432-6.5032 3.3368-9.8848 4.7695-3.3816 1.4327-6.8475 2.7054-10.387 3.8086s-7.1523 2.0365-10.83 2.791c-3.6778 0.75454-7.4196 1.33-11.217 1.7168-3.7972 0.38682-7.6493 0.58399-11.547 0.58399-3.8978 0-7.7495-0.19717-11.547-0.58399-3.7974-0.38681-7.5408-0.96226-11.219-1.7168-3.6779-0.75454-7.2908-1.6879-10.83-2.791-3.5393-1.1032-7.0051-2.3759-10.387-3.8086-3.3816-1.4327-6.6799-3.0264-9.8848-4.7695-3.2048-1.7431-6.3153-3.6354-9.3242-5.6699-3.009-2.0345-5.915-4.2108-8.709-6.5176-2.794-2.3068-5.4772-4.7448-8.0371-7.3047-2.5599-2.5599-4.9979-5.2412-7.3047-8.0352s-4.4811-5.7-6.5156-8.709c-2.0345-3.009-3.9287-6.1213-5.6719-9.3262-1.7432-3.2048-3.3368-6.5031-4.7695-9.8848-1.4327-3.3816-2.7054-6.8474-3.8086-10.387-1.1032-3.5393-2.0365-7.1521-2.791-10.83s-1.33-7.4193-1.7168-11.217c-0.38682-3.7975-0.58398-7.651-0.58398-11.549 0-3.8979 0.19713-7.7494 0.58398-11.547 0.38685-3.7974 0.9622-7.5408 1.7168-11.219s1.6897-7.2907 2.793-10.83c1.1032-3.5393 2.3758-7.0051 3.8086-10.387 1.4328-3.3816 3.0243-6.6799 4.7676-9.8848s3.6373-6.3153 5.6719-9.3242c2.0346-3.009 4.2107-5.915 6.5176-8.709 2.3068-2.794 4.7447-5.4772 7.3047-8.0371 2.56-2.5599 5.2411-4.998 8.0352-7.3047s5.702-4.4811 8.7109-6.5156c3.009-2.0345 6.1194-3.9287 9.3242-5.6719 3.2048-1.7431 6.5032-3.3349 9.8848-4.7676 3.3816-1.4327 6.8475-2.7054 10.387-3.8086s7.1523-2.0384 10.83-2.793c3.6778-0.75453 7.4196-1.33 11.217-1.7168 3.7972-0.38681 7.6493-0.58398 11.547-0.58398z"/>
    <path d="m130.93 151.18c-3.6994-0.0166-7.3665 0.1409-10.986 0.4668-3.6199 0.3259-7.192 0.82084-10.697 1.4805-3.5052 0.65962-6.9434 1.4842-10.299 2.4688-3.3555 0.98458-6.6282 2.1289-9.7988 3.4297s-6.2389 2.757-9.1895 4.3652c-2.9506 1.6082-5.783 3.3685-8.4785 5.2754 1.7878 2.7761 3.7566 5.4662 5.8926 8.0606 2.1359 2.5944 4.4377 5.093 6.8926 7.4844 2.4549 2.3914 5.0622 4.6766 7.8066 6.8438 2.7445 2.1672 5.626 4.217 8.6309 6.1387 3.0048 1.9217 6.1333 3.7141 9.3691 5.3691 3.2359 1.655 6.58 3.172 10.018 4.5391 3.4376 1.3671 6.968 2.5847 10.578 3.6426 3.6101 1.0579 7.2995 1.9561 11.053 2.6836 3.2078 0.62225 6.4184 1.1107 9.6211 1.4688 3.2027 0.35808 6.3985 0.58573 9.5742 0.68554 3.1758 0.0998 6.332 0.0725 9.459-0.0801 3.1269-0.15255 6.223-0.42913 9.2793-0.82813 3.411-3.374 6.9608-6.6096 10.639-9.6953 3.6779-3.0858 7.4846-6.0218 11.412-8.7988-3.1722-2.599-6.2407-5.3681-9.1953-8.2949s-5.795-6.0117-8.5078-9.2402-5.2991-6.6014-7.7461-10.105c-2.447-3.5041-4.7551-7.1391-6.9121-10.893-2.581-0.8785-5.207-1.6766-7.873-2.3867-2.666-0.71013-5.3723-1.3323-8.1133-1.8633-3.7531-0.72788-7.5101-1.2747-11.254-1.6426s-7.4744-0.55763-11.174-0.57422z"/>
    <path d="m192.17 34.619c-1.6151 2.88-3.0699 5.8819-4.3613 8.9844-1.2914 3.1025-2.4201 6.3066-3.3828 9.5957-0.96267 3.2891-1.7598 6.6616-2.3887 10.102s-1.0888 6.947-1.3789 10.502c-0.29006 3.5549-0.40927 7.1589-0.35547 10.793s0.2809 7.2972 0.6836 10.975c0.4027 3.6774 0.98163 7.3678 1.7383 11.053 0.75664 3.6849 1.691 7.3649 2.8066 11.021 0.77275 2.5326 1.6238 5.0269 2.5488 7.4766 0.925 2.4496 1.923 4.8551 2.9922 7.2129 1.0692 2.3578 2.2087 4.6669 3.4141 6.9238 1.2054 2.257 2.4771 4.4621 3.8106 6.6094 2.6669 4.2945 5.5818 8.3599 8.7129 12.162 1.5655 1.9011 3.186 3.7372 4.8555 5.502 1.6695 1.7647 3.3889 3.4588 5.1543 5.0781-3.171-10.312-6.482-21.025-9.166-29.68-0.31625-1.0202-0.52166-2.0492-0.62305-3.0723s-0.0998-2.0411 0-3.041 0.29662-1.9808 0.58398-2.9316c0.28736-0.95086 0.66571-1.8722 1.127-2.748 0.46125-0.87585 1.0055-1.7075 1.627-2.4824s1.3198-1.4926 2.0879-2.1406 1.6068-1.2256 2.5078-1.7207c0.90099-0.49516 1.8645-0.90824 2.8848-1.2246 1.0198-0.31625 2.0475-0.52166 3.0703-0.62305s2.0412-0.0979 3.041 2e-3c0.99983 0.0998 1.9807 0.29662 2.9316 0.58398 0.95089 0.28736 1.8721 0.6657 2.748 1.127 0.87597 0.46125 1.7074 1.0055 2.4824 1.627 0.77505 0.62148 1.4925 1.3198 2.1406 2.0879 0.64815 0.76806 1.2274 1.6049 1.7227 2.5059 0.49525 0.90098 0.90628 1.8665 1.2226 2.8867 0.879 2.839 4.8314 15.582 9.0684 29.357 1.0862-4.6242 1.8588-9.3892 2.3106-14.25 0.4518-4.8608 0.58253-9.8173 0.38672-14.822s-0.7196-10.058-1.5762-15.115c-0.42829-2.5284-0.93921-5.058-1.5352-7.582-0.59595-2.524-1.2758-5.0427-2.041-7.5508-1.1156-3.6568-2.395-7.2331-3.8242-10.713-1.4292-3.4798-3.008-6.8646-4.7266-10.141s-3.5767-6.443-5.5605-9.4883c-1.9838-3.0453-4.0935-5.9682-6.3184-8.7559-2.2249-2.7877-4.5641-5.4402-7.0059-7.9434-2.4418-2.5031-4.9866-4.8571-7.6211-7.0488-2.6345-2.1917-5.359-4.2209-8.1621-6.0742-2.8031-1.8534-5.6853-3.5314-8.6328-5.0195z"/>
  </g>
</g>
</svg>
