<svg enable-background="new 0 0 512.853 512.853" version="1.1" viewBox="0 0 512.85 512.85" xml:space="preserve" xmlns="http://www.w3.org/2000/svg">
<g transform="translate(1 1)">
	<path d="m255 417.56c-122.88 0-221.87-25.6-221.87-51.2v59.733c0 25.6 98.987 51.2 221.87 51.2s221.87-25.6 221.87-51.2v-59.733c0 25.6-98.987 51.2-221.87 51.2z" fill="#D0E8F9"/>
	<path d="m255 485.83c-95.573 0-230.4-18.773-230.4-59.733v-59.734h17.067c0 14.507 82.773 42.667 213.33 42.667s213.33-28.16 213.33-42.667h17.067v59.733c0 40.96-134.83 59.734-230.4 59.734zm-213.33-96.427v36.693c0 14.507 82.773 42.667 213.33 42.667s213.33-28.16 213.33-42.667v-36.693c-36.693 23.04-126.29 36.693-213.33 36.693s-176.64-13.653-213.33-36.693z" fill="#0096E6"/>
	<path d="m75.8 395.37v59.733" fill="#D0E8F9"/>
	<path d="m75.8 463.64c-5.12 0-8.533-3.413-8.533-8.533v-59.733c0-5.12 3.413-8.533 8.533-8.533s8.533 3.413 8.533 8.533v59.733c0 5.12-3.413 8.533-8.533 8.533z" fill="#0096E6"/>
	<path d="m434.2 455.11v-59.733" fill="#D0E8F9"/>
	<path d="m434.2 463.64c-5.12 0-8.533-3.413-8.533-8.533v-59.733c0-5.12 3.413-8.533 8.533-8.533s8.533 3.413 8.533 8.533v59.733c0 5.12-3.413 8.533-8.533 8.533z" fill="#0096E6"/>
	<path d="m118.47 405.61v59.733" fill="#D0E8F9"/>
	<path d="m118.47 473.88c-5.12 0-8.533-3.413-8.533-8.533v-59.733c0-5.12 3.413-8.533 8.533-8.533s8.533 3.413 8.533 8.533v59.733c0 5.12-3.413 8.533-8.533 8.533z" fill="#0096E6"/>
	<path d="m391.53 465.35v-59.733" fill="#D0E8F9"/>
	<path d="m391.53 473.88c-5.12 0-8.533-3.413-8.533-8.533v-59.733c0-5.12 3.413-8.533 8.533-8.533s8.533 3.413 8.533 8.533v59.733c1e-3 5.12-3.413 8.533-8.533 8.533z" fill="#0096E6"/>
	<path d="m161.13 412.44v59.733" fill="#D0E8F9"/>
	<path d="m161.13 480.71c-5.12 0-8.533-3.413-8.533-8.533v-59.734c0-5.12 3.413-8.533 8.533-8.533s8.533 3.413 8.533 8.533v59.733c1e-3 4.267-3.413 8.534-8.533 8.534z" fill="#0096E6"/>
	<path d="m348.87 472.17v-59.733" fill="#D0E8F9"/>
	<path d="m348.87 480.71c-5.12 0-8.533-3.413-8.533-8.533v-59.734c0-5.12 3.413-8.533 8.533-8.533s8.533 3.413 8.533 8.533v59.733c0 4.267-3.413 8.534-8.533 8.534z" fill="#0096E6"/>
	<path d="m203.8 415.85v59.733" fill="#D0E8F9"/>
	<path d="m203.8 484.12c-5.12 0-8.533-3.413-8.533-8.533v-59.733c0-5.12 3.413-8.533 8.533-8.533s8.533 3.413 8.533 8.533v59.733c0 5.12-3.413 8.533-8.533 8.533z" fill="#0096E6"/>
	<path d="m306.2 475.59v-59.733" fill="#D0E8F9"/>
	<path d="m306.2 484.12c-5.12 0-8.533-3.413-8.533-8.533v-59.733c0-5.12 3.413-8.533 8.533-8.533s8.533 3.413 8.533 8.533v59.733c0 5.12-3.413 8.533-8.533 8.533z" fill="#0096E6"/>
	<path d="m255 417.56v59.733" fill="#D0E8F9"/>
	<path d="m255 485.83c-5.12 0-8.533-3.413-8.533-8.533v-59.734c0-5.12 3.413-8.533 8.533-8.533s8.533 3.413 8.533 8.533v59.733c0 5.12-3.413 8.534-8.533 8.534z" fill="#0096E6"/>
	<path d="m229.4 323.69c-122.88 0-221.87-25.6-221.87-51.2v59.733c0 25.6 98.987 51.2 221.87 51.2s221.87-25.6 221.87-51.2v-59.733c0 25.6-98.987 51.2-221.87 51.2z" fill="#D0E8F9"/>
	<path d="m229.4 391.96c-95.573 0-230.4-18.773-230.4-59.733v-59.733h17.067c0 14.506 82.773 42.666 213.33 42.666s213.33-28.16 213.33-42.667h17.067v59.733c0 40.961-134.83 59.734-230.4 59.734zm-213.33-96.427v36.693c0 14.507 82.773 42.667 213.33 42.667s213.33-28.16 213.33-42.667v-36.693c-36.693 23.04-126.29 36.693-213.33 36.693s-176.64-13.653-213.33-36.693z" fill="#0096E6"/>
	<path d="m50.2 301.51v59.733" fill="#D0E8F9"/>
	<path d="m50.2 369.77c-5.12 0-8.533-3.413-8.533-8.533v-59.733c0-5.12 3.413-8.533 8.533-8.533s8.533 3.413 8.533 8.533v59.733c0 5.12-3.413 8.533-8.533 8.533z" fill="#0096E6"/>
	<path d="m408.6 361.24v-59.733" fill="#D0E8F9"/>
	<path d="m408.6 369.77c-5.12 0-8.533-3.413-8.533-8.533v-59.733c0-5.12 3.413-8.533 8.533-8.533s8.533 3.413 8.533 8.533v59.733c0 5.12-3.413 8.533-8.533 8.533z" fill="#0096E6"/>
	<path d="m92.867 311.75v59.733" fill="#D0E8F9"/>
	<path d="m92.867 380.01c-5.12 0-8.533-3.413-8.533-8.533v-59.733c0-5.12 3.413-8.533 8.533-8.533s8.533 3.413 8.533 8.533v59.733c0 5.12-3.413 8.533-8.533 8.533z" fill="#0096E6"/>
	<path d="m365.93 371.48v-59.733" fill="#D0E8F9"/>
	<path d="m365.93 380.01c-5.12 0-8.533-3.413-8.533-8.533v-59.733c0-5.12 3.413-8.533 8.533-8.533s8.533 3.413 8.533 8.533v59.733c1e-3 5.12-3.413 8.533-8.533 8.533z" fill="#0096E6"/>
	<path d="m135.53 318.57v59.733" fill="#D0E8F9"/>
	<path d="m135.53 386.84c-5.12 0-8.533-3.413-8.533-8.533v-59.733c0-5.12 3.413-8.533 8.533-8.533s8.533 3.413 8.533 8.533v59.733c1e-3 4.266-3.413 8.533-8.533 8.533z" fill="#0096E6"/>
	<path d="m323.27 378.31v-59.733" fill="#D0E8F9"/>
	<path d="m323.27 386.84c-5.12 0-8.533-3.413-8.533-8.533v-59.733c0-5.12 3.413-8.533 8.533-8.533s8.533 3.413 8.533 8.533v59.733c0 4.266-3.413 8.533-8.533 8.533z" fill="#0096E6"/>
	<path d="m178.2 321.99v59.733" fill="#D0E8F9"/>
	<path d="m178.2 390.25c-5.12 0-8.533-3.413-8.533-8.533v-59.733c0-5.12 3.413-8.533 8.533-8.533s8.533 3.413 8.533 8.533v59.733c0 5.12-3.413 8.533-8.533 8.533z" fill="#0096E6"/>
	<path d="m280.6 381.72v-59.733" fill="#D0E8F9"/>
	<path d="m280.6 390.25c-5.12 0-8.533-3.413-8.533-8.533v-59.733c0-5.12 3.413-8.533 8.533-8.533s8.533 3.413 8.533 8.533v59.733c0 5.12-3.413 8.533-8.533 8.533z" fill="#0096E6"/>
	<path d="m229.4 323.69v59.733" fill="#D0E8F9"/>
	<path d="m229.4 391.96c-5.12 0-8.533-3.413-8.533-8.533v-59.733c0-5.12 3.413-8.533 8.533-8.533s8.533 3.413 8.533 8.533v59.733c0 5.12-3.413 8.533-8.533 8.533z" fill="#0096E6"/>
	<path d="m280.6 229.83c-122.88 0-221.87-25.6-221.87-51.2v59.733c0 25.6 98.987 51.2 221.87 51.2s221.87-25.6 221.87-51.2v-59.733c0 25.6-98.987 51.2-221.87 51.2z" fill="#D0E8F9"/>
	<path d="m280.6 298.09c-95.573 0-230.4-18.773-230.4-59.733v-59.733h17.067c0 14.507 82.773 42.667 213.33 42.667s213.33-28.16 213.33-42.667h17.067v59.733c0 40.96-134.83 59.733-230.4 59.733zm-213.33-96.426v36.693c0 14.507 82.773 42.667 213.33 42.667s213.33-28.16 213.33-42.667v-36.693c-36.693 23.04-126.29 36.693-213.33 36.693s-176.64-13.653-213.33-36.693z" fill="#0096E6"/>
	<path d="m101.4 207.64v59.733" fill="#D0E8F9"/>
	<path d="m101.4 275.91c-5.12 0-8.533-3.413-8.533-8.533v-59.734c0-5.12 3.413-8.533 8.533-8.533s8.533 3.413 8.533 8.533v59.733c0 5.12-3.413 8.534-8.533 8.534z" fill="#0096E6"/>
	<path d="m459.8 267.37v-59.733" fill="#D0E8F9"/>
	<path d="m459.8 275.91c-5.12 0-8.533-3.413-8.533-8.533v-59.734c0-5.12 3.413-8.533 8.533-8.533s8.533 3.413 8.533 8.533v59.733c0 5.12-3.413 8.534-8.533 8.534z" fill="#0096E6"/>
	<path d="m144.07 217.88v59.733" fill="#D0E8F9"/>
	<path d="m144.07 286.15c-5.12 0-8.533-3.413-8.533-8.533v-59.734c0-5.12 3.413-8.533 8.533-8.533s8.533 3.413 8.533 8.533v59.733c0 5.12-3.413 8.534-8.533 8.534z" fill="#0096E6"/>
	<path d="m417.13 277.61v-59.733" fill="#D0E8F9"/>
	<path d="m417.13 286.15c-5.12 0-8.533-3.413-8.533-8.533v-59.734c0-5.12 3.413-8.533 8.533-8.533s8.533 3.413 8.533 8.533v59.733c1e-3 5.12-3.413 8.534-8.533 8.534z" fill="#0096E6"/>
	<path d="m186.73 224.71v59.733" fill="#D0E8F9"/>
	<path d="m186.73 292.97c-5.12 0-8.533-3.413-8.533-8.533v-59.733c0-5.12 3.413-8.533 8.533-8.533s8.533 3.413 8.533 8.533v59.733c1e-3 4.267-3.413 8.533-8.533 8.533z" fill="#0096E6"/>
	<path d="m374.47 284.44v-59.733" fill="#D0E8F9"/>
	<path d="m374.47 292.97c-5.12 0-8.533-3.413-8.533-8.533v-59.733c0-5.12 3.413-8.533 8.533-8.533s8.533 3.413 8.533 8.533v59.733c0 4.267-3.413 8.533-8.533 8.533z" fill="#0096E6"/>
	<path d="m229.4 228.12v59.733" fill="#D0E8F9"/>
	<path d="m229.4 296.39c-5.12 0-8.533-3.413-8.533-8.533v-59.734c0-5.12 3.413-8.533 8.533-8.533s8.533 3.413 8.533 8.533v59.733c0 5.12-3.413 8.534-8.533 8.534z" fill="#0096E6"/>
	<path d="m331.8 287.85v-59.733" fill="#D0E8F9"/>
	<path d="m331.8 296.39c-5.12 0-8.533-3.413-8.533-8.533v-59.734c0-5.12 3.413-8.533 8.533-8.533s8.533 3.413 8.533 8.533v59.733c0 5.12-3.413 8.534-8.533 8.534z" fill="#0096E6"/>
	<path d="m280.6 229.83v59.733" fill="#D0E8F9"/>
	<path d="m280.6 298.09c-5.12 0-8.533-3.413-8.533-8.533v-59.733c0-5.12 3.413-8.533 8.533-8.533s8.533 3.413 8.533 8.533v59.733c0 5.12-3.413 8.533-8.533 8.533z" fill="#0096E6"/>
	<path d="m451.27 77.08c0 25.6-98.987 50.347-221.87 50.347s-221.87-23.894-221.87-50.347c0-25.6 98.987-43.52 221.87-43.52s221.87 17.92 221.87 43.52z" fill="#fff"/>
	<path d="m229.4 135.96c-111.79 0-230.4-20.48-230.4-58.88 0-50.347 206.51-52.053 230.4-52.053s230.4 1.707 230.4 52.053c0 38.4-118.61 58.88-230.4 58.88zm0-93.867c-141.65 0-213.33 22.187-213.33 34.987 0 14.507 81.067 41.813 213.33 41.813s213.33-27.306 213.33-41.813c0-12.8-71.68-34.987-213.33-34.987z" fill="#0096E6"/>
	<path d="m229.4 127.43c-122.88 0-221.87-25.6-221.87-51.2v59.733c0 25.6 98.987 51.2 221.87 51.2s221.87-25.6 221.87-51.2v-59.733c0 25.6-98.987 51.2-221.87 51.2z" fill="#D0E8F9"/>
	<path d="m229.4 195.69c-95.573 0-230.4-18.773-230.4-59.733v-59.733h17.067c0 14.507 82.773 42.667 213.33 42.667s213.33-28.16 213.33-42.667h17.067v59.733c0 40.96-134.83 59.733-230.4 59.733zm-213.33-96.426v36.693c0 14.507 82.773 42.667 213.33 42.667s213.33-28.16 213.33-42.667v-36.693c-36.693 23.04-126.29 36.693-213.33 36.693s-176.64-13.653-213.33-36.693z" fill="#0096E6"/>
	<path d="m50.2 105.24v59.733" fill="#D0E8F9"/>
	<path d="m50.2 173.51c-5.12 0-8.533-3.413-8.533-8.533v-59.734c0-5.12 3.413-8.533 8.533-8.533s8.533 3.413 8.533 8.533v59.733c0 5.12-3.413 8.534-8.533 8.534z" fill="#0096E6"/>
	<path d="m408.6 164.97v-59.733" fill="#D0E8F9"/>
	<path d="m408.6 173.51c-5.12 0-8.533-3.413-8.533-8.533v-59.734c0-5.12 3.413-8.533 8.533-8.533s8.533 3.413 8.533 8.533v59.733c0 5.12-3.413 8.534-8.533 8.534z" fill="#0096E6"/>
	<path d="m92.867 115.48v59.733" fill="#D0E8F9"/>
	<path d="m92.867 183.75c-5.12 0-8.533-3.413-8.533-8.533v-59.734c0-5.12 3.413-8.533 8.533-8.533s8.533 3.413 8.533 8.533v59.733c0 5.12-3.413 8.534-8.533 8.534z" fill="#0096E6"/>
	<path d="m365.93 175.21v-59.733" fill="#D0E8F9"/>
	<path d="m365.93 183.75c-5.12 0-8.533-3.413-8.533-8.533v-59.734c0-5.12 3.413-8.533 8.533-8.533s8.533 3.413 8.533 8.533v59.733c1e-3 5.12-3.413 8.534-8.533 8.534z" fill="#0096E6"/>
	<path d="m135.53 122.31v59.733" fill="#D0E8F9"/>
	<path d="m135.53 190.57c-5.12 0-8.533-3.413-8.533-8.533v-59.733c0-5.12 3.413-8.533 8.533-8.533s8.533 3.413 8.533 8.533v59.733c1e-3 4.267-3.413 8.533-8.533 8.533z" fill="#0096E6"/>
	<path d="m323.27 182.04v-59.733" fill="#D0E8F9"/>
	<path d="m323.27 190.57c-5.12 0-8.533-3.413-8.533-8.533v-59.733c0-5.12 3.413-8.533 8.533-8.533s8.533 3.413 8.533 8.533v59.733c0 4.267-3.413 8.533-8.533 8.533z" fill="#0096E6"/>
	<path d="m178.2 125.72v59.733" fill="#D0E8F9"/>
	<path d="m178.2 193.99c-5.12 0-8.533-3.413-8.533-8.533v-59.734c0-5.12 3.413-8.533 8.533-8.533s8.533 3.413 8.533 8.533v59.733c0 5.12-3.413 8.534-8.533 8.534z" fill="#0096E6"/>
	<path d="m280.6 185.45v-59.733" fill="#D0E8F9"/>
	<path d="m280.6 193.99c-5.12 0-8.533-3.413-8.533-8.533v-59.734c0-5.12 3.413-8.533 8.533-8.533s8.533 3.413 8.533 8.533v59.733c0 5.12-3.413 8.534-8.533 8.534z" fill="#0096E6"/>
	<path d="m229.4 127.43v59.733" fill="#D0E8F9"/>
	<path d="m229.4 195.69c-5.12 0-8.533-3.413-8.533-8.533v-59.733c0-5.12 3.413-8.533 8.533-8.533s8.533 3.413 8.533 8.533v59.733c0 5.12-3.413 8.533-8.533 8.533z" fill="#0096E6"/>
	<path d="m444.44 344.17c-23.893 21.333-110.93 39.253-215.04 39.253-81.067 0-151.89-11.093-191.15-26.453-3.413 3.413-5.12 6.827-5.12 10.24 0 25.6 98.987 50.347 221.87 50.347s221.87-23.893 221.87-50.347c0-8.533-11.947-17.066-32.427-23.04z" fill="#fff"/>
	<path d="m255 426.09c-111.79 0-230.4-20.48-230.4-58.88 0-5.973 2.56-11.093 8.533-16.213l4.267-3.413 4.267 1.707c40.96 15.36 112.64 25.6 187.73 25.6 108.37 0 188.59-19.627 209.92-37.547l3.413-3.413 4.267 1.706c25.6 8.533 38.4 18.773 38.4 31.573 0 38.4-118.61 58.88-230.4 58.88zm-213.33-58.88c0 14.507 81.067 41.813 213.33 41.813s213.33-27.307 213.33-41.813c0-1.707-4.267-7.68-22.187-13.653-31.573 22.187-120.32 38.4-216.75 38.4-73.386 0-144.21-9.387-187.73-24.747z" fill="#0096E6"/>
	<path d="m280.6 289.56c-112.64 0-205.65-21.333-220.16-45.227-33.28 7.68-52.907 17.92-52.907 29.013 0 25.6 98.987 50.347 221.87 50.347s221.87-23.893 221.87-50.347c0-0.853 0-2.56-0.853-3.413-40.107 11.947-101.55 19.627-169.81 19.627z" fill="#fff"/>
	<path d="m229.4 332.23c-111.79 0-230.4-20.48-230.4-58.88 0-16.213 19.627-28.16 59.733-37.547l5.973-1.707 3.413 5.12c10.24 17.92 91.307 41.813 212.48 41.813 64 0 124.59-6.827 168.11-18.773l7.68-2.56 2.56 7.68c0.853 2.56 0.853 4.267 0.853 5.973 1e-3 38.401-118.61 58.881-230.4 58.881zm-172.37-78.507c-34.133 8.533-40.96 17.067-40.96 19.627 0 14.507 81.067 41.813 213.33 41.813 106.67 0 180.05-17.067 203.95-31.573-41.813 9.387-96.427 14.507-152.75 14.507-105.81-1e-3 -197.97-18.774-223.57-44.374z" fill="#0096E6"/>
	<path d="m442.73 148.76c-26.453 21.333-111.79 38.4-213.33 38.4-65.707 0-124.59-6.827-164.69-17.92-4.267 3.413-5.973 6.827-5.973 10.24 0 25.6 98.987 50.347 221.87 50.347s221.87-23.893 221.87-50.347c-1e-3 -11.947-23.041-23.04-59.735-30.72z" fill="#fff"/>
	<path d="m280.6 238.36c-111.79 0-230.4-20.48-230.4-58.88 0-5.973 2.56-11.947 8.533-17.067l3.414-3.413 4.267 0.853c42.667 11.093 101.55 17.92 162.99 17.92 104.96 0 185.17-18.773 208.21-35.84l3.413-2.56 4.267 0.853c45.227 9.387 66.56 22.187 66.56 39.253-0.854 38.401-119.47 58.881-231.25 58.881zm-213.33-59.733v0.853c0 14.507 81.067 41.813 213.33 41.813s213.33-27.307 213.33-41.813c0-3.413-9.387-12.8-49.493-21.333-32.427 22.187-119.47 37.547-215.04 37.547-59.733-1e-3 -118.61-5.974-162.13-17.067z" fill="#0096E6"/>
</g>















<path d="m226.7 486.04c-19.907-0.84581-40.445-2.3616-62.65-4.624-13.397-1.365-41.794-5.7789-55.073-8.5605-46.308-9.6999-73.956-22.665-81.242-38.098l-1.5134-3.2053v-33.51c0-18.431 0.19109-34.189 0.42465-35.019 0.39035-1.387 0.17853-1.6224-2.6225-2.9139-9.0232-4.1606-18.948-12.788-21.86-19.002l-1.5852-3.3833-0.16437-32.86c-0.18593-37.17-0.25057-36.515 4.1898-42.407 6.069-8.0521 19.219-15.149 38.809-20.944 4.0067-1.1853 7.4728-2.3188 7.7025-2.5189 0.22973-0.20008 0.49199-14.695 0.58279-32.21l0.16509-31.846-6.4107-2.1729c-20.589-6.9785-35.319-15.658-40.992-24.153-4.3045-6.446-4.2324-5.6924-4.0474-42.324l0.16452-32.568 1.7143-3.4967c11.147-22.737 72.694-37.63 175.74-42.528 58.002-2.7565 119.9-0.86068 171.92 5.2659 64.327 7.5751 100.53 20.205 108.86 37.972l1.5788 3.3692 0.15996 31.762c0.13188 26.185 0.0124 32.325-0.6807 34.966-0.46236 1.7625-0.79661 3.2382-0.74275 3.2794 0.0539 0.0411 3.4198 1.0125 7.4798 2.1585 24.272 6.8512 38.887 15.438 43.974 25.835l1.5806 3.2307-0.1193 31.557c-0.0708 18.733-0.3667 32.978-0.72809 35.054-2.0682 11.88-15.343 22.249-40.142 31.358-4.0067 1.4716-8.006 2.8486-8.8875 3.06l-1.6027 0.38428-0.0139 28.639c-0.0128 26.288-0.17279 30.229-1.3803 33.992-0.36807 1.147 0.21581 1.5945 5.8836 4.5094 11.107 5.7122 17.199 11.295 19.765 18.112 1.0265 2.7273 1.0968 5.0232 1.0968 35.841v32.928l-1.8895 3.9896c-6.6904 14.126-31.182 26.432-70.828 35.589-16.457 3.8009-30.743 6.2503-59.866 10.264-9.2523 1.2753-36.801 3.5759-55.948 4.6724-14.242 0.81557-56.824 1.1496-70.809 0.55544zm21.272-37.605c0-16.524-0.16308-21.34-0.72848-21.514-0.40067-0.12331-8.2683-0.37635-17.484-0.56231l-16.755-0.33811v43.08l5.6822 0.19052c3.1252 0.10479 10.993 0.24541 17.484 0.3125l11.801 0.12197zm42.743 20.908 7.9598-0.38175v-43.127l-8.3047 0.37991c-4.5676 0.20896-12.304 0.38088-17.192 0.38205l-8.8875 2e-3v43.126h9.2324c5.0778 0 12.814-0.17178 17.192-0.38174zm-94.028-22.877v-21.511l-5.0994-0.38802c-2.8047-0.21342-8.7054-0.70147-13.113-1.0846l-8.0133-0.69654v42.788l2.4768 0.35543c2.8747 0.41252 19.064 1.8784 21.855 1.9789l1.8941 0.0682zm130.37 20.632c5.7055-0.48317 11.357-1.0307 12.559-1.2168l2.1855-0.33832v-42.441l-2.1855 7e-3c-1.202 4e-3 -6.5126 0.39409-11.801 0.86698-5.2888 0.47289-10.206 0.86303-10.927 0.86698l-1.3113 7e-3v21.563c0 13.23 0.21396 21.563 0.55363 21.563 0.30449 0 5.2218-0.39532 10.927-0.87848zm-173.05-25.092-0.15317-20.944-10.9-1.5327c-5.9951-0.84299-11.83-1.7072-12.967-1.9205l-2.0669-0.38775v42.47l1.3113 0.31776c1.4112 0.34199 19.403 3.1189 22.292 3.4406 0.9616 0.10709 1.9484 0.0384 2.1929-0.15262 0.24451-0.19103 0.37564-9.772 0.29139-21.291zm217.23 19.841c5.4491-0.79851 10.629-1.6026 11.51-1.787l1.6027-0.33511v-42.587l-1.2893 0.33716c-0.7091 0.18543-6.6098 1.0616-13.113 1.947l-11.823 1.6098v42.836l1.6027-0.28455c0.88147-0.1565 6.061-0.93787 11.51-1.7364zm-260.21-26.495v-20.969l-1.3113-0.2987c-0.7212-0.16428-3.8027-0.83856-6.8478-1.4984-3.0451-0.65984-8.0754-1.8417-11.179-2.6263-3.1032-0.78466-5.9224-1.4266-6.265-1.4266-0.77858 0-0.88054 41.15-0.10315 41.63 0.40882 0.25266 16.855 4.4596 22.5 5.7555 3.455 0.79312 3.2053 2.3949 3.2053-20.566zm303.77 17.98 12.1-2.9894v-20.905c0-11.498-0.14917-20.905-0.33148-20.905s-2.8704 0.642-5.9736 1.4267-8.2646 1.9732-11.47 2.6412c-3.2053 0.66801-6.418 1.3423-7.1392 1.4984l-1.3113 0.2838v20.969c0 19.528 0.0696 20.969 1.013 20.969 0.55718 0 6.4579-1.3452 13.113-2.9894zm-346.45-29.409-0.15306-20.743-5.5365-2.2002c-7.6942-3.0577-12.669-5.3646-16.836-7.8065l-3.5618-2.0875v18.368c0 15.001 0.15668 18.671 0.85464 20.021 1.3248 2.5618 5.7091 6.0944 10.967 8.8365 4.6664 2.4336 13.083 6.2374 13.974 6.315 0.24445 0.0213 0.37558-9.2955 0.29139-20.704zm383.47 17.396c7.1612-3.1259 14.465-7.8714 16.296-10.587 1.3154-1.9518 1.3296-2.1727 1.3296-20.585 0-10.236-0.19669-18.521-0.43709-18.411-0.2404 0.11046-3.9775 1.9671-8.3047 4.1258-4.3272 2.1587-9.9657 4.6855-12.53 5.615l-4.6623 1.6901-0.1531 20.791-0.15311 20.791 1.3187-0.41056c0.72528-0.22581 4.0086-1.5847 7.2964-3.0198zm-148.76-32.171c56.734-3.3473 101.92-10.578 135.02-21.605 20.334-6.7743 31.364-13.607 31.364-19.43 0-3.0131-7.9717-8.5036-17.895-12.325l-4.1999-1.6174-3.9591 2.3884c-24.071 14.521-71.407 26.102-131.3 32.121-91.675 9.2133-197.69 1.8238-261.38-18.219-4.4875-1.4121-8.2599-2.4794-8.3832-2.3718-0.67399 0.58838 1.6392 4.108 4.2318 6.439 3.8417 3.454 15.633 9.1957 26.006 12.663 36.122 12.076 86.546 19.724 148.32 22.498 14.066 0.63157 68.364 0.27477 82.173-0.53996zm-80.716-54.814v-21.563l-8.3047-2e-3c-4.5676-1e-3 -12.438-0.17339-17.491-0.38294l-9.1862-0.38099 0.15297 21.509 0.15298 21.509 6.9934 0.31987c3.8464 0.17593 11.648 0.37262 17.338 0.43709l10.344 0.11722zm50.798 20.63c0.26821-0.16576 0.48766-9.8994 0.48766-21.63v-21.329l-9.7091 0.38292c-5.34 0.2106-13.208 0.38291-17.484 0.38291h-7.7746v43.31l16.996-0.40754c9.3478-0.22414 17.215-0.54315 17.484-0.70892zm-102.08-22.379v-21.563l-1.6027-0.0374c-0.88146-0.0206-6.7822-0.48012-13.113-1.0212l-11.51-0.98388v42.719l3.9338 0.39273c2.1636 0.216 7.7365 0.73608 12.384 1.1558 4.6477 0.41966 8.7782 0.79406 9.1789 0.83199 0.5709 0.054 0.72848-4.5954 0.72848-21.494zm132 20.382c4.1669-0.33328 8.8219-0.76206 10.344-0.95286l2.7682-0.34691v-21.1c0-11.605-0.12216-21.222-0.27145-21.371-0.14929-0.14929-3.7553 0.042-8.0133 0.42512-4.258 0.3831-10.037 0.87847-12.841 1.1008l-5.0994 0.40426v43.062l2.7682-0.30787c1.5225-0.16934 6.1776-0.58055 10.344-0.91382zm-174.54-24.622v-21.141l-11.823-1.6098c-6.5029-0.88539-12.404-1.7615-13.113-1.947l-1.2893-0.33715v42.537l8.3047 1.2746c4.5676 0.70103 9.616 1.4889 11.219 1.7509 1.6027 0.26195 3.7663 0.50712 4.808 0.54482l1.8941 0.0685zm220.73 19.017 9.4703-1.5297v-42.479l-1.6027 0.31834c-1.9458 0.38651-16.622 2.464-21.272 3.011l-3.351 0.39429v42.575l3.6424-0.38038c2.0033-0.20921 7.904-1.0687 13.113-1.91zm-263.86-25.838v-20.969l-1.3113-0.29812c-7.2257-1.6428-21.466-4.9427-22.736-5.2688l-1.6101-0.41329 0.15313 20.84 0.15313 20.84 4.0795 1.131c4.0012 1.1093 19.975 4.9965 20.835 5.0701 0.2404 0.0206 0.43709-9.3987 0.43709-20.932zm299.05 18.971c4.6922-1.0965 10.396-2.549 12.676-3.2278l4.1443-1.2342v-20.664c0-22.39 0.15977-21.361-3.1233-20.113-0.79796 0.30338-5.7323 1.4898-10.965 2.6364-5.2329 1.1466-10.104 2.2147-10.826 2.3734l-1.3113 0.28862v20.969c0 11.533 0.19669 20.968 0.43709 20.967 0.2404-1e-3 4.2762-0.89932 8.9684-1.9958zm-341.73-30.735-0.15315-20.494-6.1193-2.4493c-7.4749-2.992-11.414-4.8235-16.172-7.5206l-3.6424-2.0643 0.0022 18.498c0.0025 21.075-0.16199 20.29 5.1233 24.468 4.3909 3.4708 17.22 9.7674 20.379 10.002 0.5825 0.0433 0.70401-4.2184 0.58279-20.439zm384.67 16.678c6.9616-3.3091 13.191-7.3861 15.213-9.9567 1.1664-1.4829 1.2092-2.1958 1.2092-20.156 0-10.241-0.19669-18.529-0.43709-18.418s-3.9775 1.9671-8.3047 4.1258c-4.3272 2.1587-9.9657 4.6854-12.53 5.615l-4.6623 1.6901-0.15323 20.523-0.15322 20.523 1.6072-0.40337c0.88393-0.22185 4.579-1.816 8.2112-3.5425zm-164.82-30.572c62.328-2.3351 114.33-9.8356 150.07-21.647 8.5114-2.8126 22.361-8.9259 21.706-9.5811-0.17958-0.17958-2.7766 0.20258-5.771 0.84925-44.36 9.5796-111.39 14.722-169.06 12.97-56.346-1.7116-99.459-6.8814-139.05-16.674-27.704-6.852-47.883-15.426-60.586-25.745l-1.9306-1.5681-4.1887 1.0742c-18.617 4.7747-35.631 13.108-36.874 18.06-0.75252 2.9983 2.8725 7.0294 9.9464 11.061 22.892 13.045 76.436 24.606 134.93 29.131 31.325 2.4234 70.119 3.2196 100.82 2.0694zm11.073-55.089c0-16.522-0.16316-21.341-0.72849-21.518-0.40067-0.12532-8.2716-0.39791-17.491-0.60577l-16.762-0.37792 0.15292 21.459 0.15292 21.459 7.5762 0.31811c4.1669 0.17496 11.969 0.37165 17.338 0.43709l9.7617 0.11899zm39.244 20.906 11.458-0.38374v-43.125l-10.053 0.38134c-5.5292 0.20974-13.266 0.38215-17.192 0.38312l-7.1391 2e-3v43.126h5.7342c3.1538 0 10.89-0.17269 17.192-0.38375zm-90.53-22.928c0-12.467-0.22233-21.563-0.52705-21.563-1.442 0-22.708-1.789-24.096-2.0271l-1.6027-0.27493v43.004l3.6424 0.38384c3.5245 0.37142 19.493 1.8311 21.563 1.9711 0.95419 0.0645 1.0199-1.3201 1.0199-21.494zm134.7 20.098c5.3284-0.47637 9.8523-0.86612 10.053-0.86612 0.40108 0 0.51725-42.197 0.11726-42.597-0.13629-0.13629-5.4469 0.19657-11.801 0.73967s-12.144 1.0043-12.865 1.0248l-1.3113 0.0374v43.136l3.0596-0.30455c1.6828-0.1675 7.4192-0.6943 12.748-1.1707zm-177.82-24.469c0-14.356-0.19732-21.272-0.6069-21.272-0.86946 0-21.517-2.8766-23.433-3.2647l-1.6027-0.32459v21.318c0 16.646 0.15967 21.326 0.72849 21.356 0.40067 0.0209 5.3179 0.78326 10.927 1.6943s11.051 1.6808 12.093 1.7105l1.8941 0.0541zm219.1 19.518c6.2329-0.95887 11.412-1.7434 11.51-1.7434s0.17747-9.6029 0.17747-21.34v-21.34l-1.6027 0.32052c-0.88146 0.17629-6.7822 1.0398-13.113 1.9189l-11.51 1.5984v42.338l1.6027-5e-3c0.88147-3e-3 6.7023-0.78951 12.935-1.7484zm-261.78-26.348-0.15297-21.108-2.6225-0.49199c-1.4424-0.2706-7.0644-1.5245-12.493-2.7865-5.429-1.262-10.084-2.2945-10.344-2.2945s-0.47366 9.2755-0.47366 20.612v20.612l3.6424 1.034c5.0437 1.4319 20.965 5.4246 21.862 5.4826 0.58244 0.0376 0.70388-4.3507 0.58279-21.06zm303.77 18.012 11.947-3.023 0.15306-20.835c0.12142-16.528 1.6e-4 -20.835-0.58663-20.835-0.40683 0-1.6558 0.26949-2.7756 0.59887-1.659 0.48799-8.3138 2.0288-21.414 4.958l-1.3113 0.2932v20.969c0 19.596 0.0668 20.967 1.0199 20.933 0.56093-0.0201 6.3961-1.397 12.967-3.0596zm35.237-11.16c9.4992-3.9798 16.284-8.2875 18.371-11.664 1.1128-1.8006 1.1746-2.8704 1.1746-20.335 0-10.139-0.20981-18.435-0.46623-18.435-0.25643 0-0.71537 0.23877-1.0199 0.53061-1.1409 1.0934-12.982 6.7211-18.608 8.8439l-5.8398 2.2034-0.15305 20.728c-0.0842 11.4-0.043 20.728 0.0914 20.728 0.13447 0 3.0372-1.17 6.4505-2.6001zm-381.55-18.477-0.15315-20.494-6.1193-2.4493c-7.4749-2.9919-11.414-4.8235-16.172-7.5206l-3.6424-2.0643v35.716l1.8351 2.3882c2.9159 3.7948 7.1297 6.7607 15.606 10.984 4.342 2.1636 8.0982 3.9338 8.347 3.9338s0.38351-9.2224 0.29927-20.494zm232.96-14.461c68.537-3.7974 125.92-14.461 154.44-28.698 9.661-4.8235 13.696-8.4848 13.696-12.429 0-3.829-10.127-10.111-23.436-14.538-6.8696-2.2852-23.709-6.7053-25.546-6.7053-0.63858 0-2.159 0.62995-3.3786 1.3999-6.6414 4.1926-19.186 9.6418-30.85 13.401-81.602 26.298-233.19 30.031-331.65 8.1689-6.5269-1.4492-12-2.5018-12.163-2.3392-0.82355 0.82354 0.84589 3.8786 3.5605 6.5157 2.1881 2.1256 5.0929 3.9645 10.301 6.5215 31.254 15.343 94.538 26.449 166.71 29.258 15.924 0.61961 63.165 0.285 78.321-0.55477zm-104.61-63.827v-21.272h-8.6492c-4.757 0-12.625-0.17207-17.484-0.38238l-8.8345-0.38239v21.071c0 11.589 0.0656 21.104 0.1457 21.145 0.43809 0.2202 18.308 0.90245 25.934 0.99014l8.8875 0.1022zm49.974 20.3 1.3113-0.31978v-42.016l-8.8345 0.38239c-4.859 0.21031-12.727 0.38238-17.484 0.38238h-8.6492v42.717l16.172-0.41316c8.8948-0.22723 16.762-0.55705 17.484-0.73294zm32.377-2.2358c5.3868-0.47933 10.173-0.87152 10.636-0.87152 0.71847 0 0.84175-3.1233 0.84175-21.326v-21.326l-2.7682 0.33918c-1.5225 0.18654-6.0464 0.60975-10.053 0.94045-4.0067 0.33071-8.6617 0.74607-10.344 0.92303l-3.0596 0.32174v42.316l2.4768-0.22247c1.3623-0.12236 6.8842-0.61466 12.271-1.094zm-133.64-20.104c0-11.539-0.19669-20.981-0.43709-20.983-0.85147-5e-3 -19.715-1.7155-22.729-2.0614l-3.0596-0.35123v42.477l8.5961 0.70399c4.7279 0.3872 8.8584 0.7937 9.1789 0.90334 0.32053 0.10963 2.353 0.22004 4.5166 0.24534l3.9338 0.046zm-42.543-4.0684v-20.969l-1.3113-0.29114c-0.7212-0.16013-3.5404-0.57095-6.265-0.91294-4.7962-0.60203-13.762-2.0051-17.054-2.6689l-1.61-0.3246 0.15302 21.157 0.15302 21.157 4.6623 0.77949c8.3428 1.3948 18.619 2.9333 19.96 2.9884l1.3113 0.0538zm220.15 18.839 10.053-1.5874v-42.449l-1.3113 0.31017c-1.8456 0.43654-16.289 2.628-20.835 3.1612l-3.7881 0.44433-0.15305 21.208-0.15306 21.207 3.067-0.35353c1.6868-0.19444 7.5909-1.0679 13.12-1.9409zm-263.51-46.601c-0.13886-0.36188-1.2569-0.8382-2.4845-1.0585-3.0267-0.54315-20.628-4.8031-21.901-5.3007-0.96012-0.3752-1.0199 0.86492-1.0199 21.164v21.562l1.4838 0.37241c0.81607 0.20482 1.6912 0.24417 1.9448 0.0874 0.25358-0.15672 4.7654 0.73038 10.026 1.9713 5.2609 1.241 10.09 2.3483 10.731 2.4607 1.1449 0.20079 1.1683-0.15763 1.3189-20.198 0.08432-11.221 0.03969-20.699-0.09917-21.061zm301.93 39.042c4.54-1.0994 9.5884-2.395 11.219-2.8791l2.9641-0.88024v-20.997c0-19.722-0.0619-20.979-1.0199-20.699-5.3684 1.5669-8.9837 2.4788-16.335 4.1206l-8.5788 1.9158-0.15302 21.106-0.15301 21.106 1.9014-0.39671c1.0458-0.2182 5.6159-1.2962 10.156-2.3956zm-344.37-29.682-0.15288-21.306-5.5365-2.2204c-7.3256-2.9379-11.176-4.7258-15.646-7.2657-2.0341-1.1558-3.9355-2.1015-4.2252-2.1015-0.30292 0-0.5268 7.9379-0.5268 18.678 0 14.972 0.16359 18.99 0.82446 20.252 2.0072 3.8313 8.38 8.2152 18.116 12.462 3.5259 1.538 6.6106 2.7988 6.8549 2.8017 0.24435 3e-3 0.37548-9.5823 0.29139-21.3zm383.07 17.261c5.8331-2.6112 14.9-8.0609 17.143-10.303 0.76014-0.76014 0.88799-3.7 0.88799-20.418 0-10.742-0.20314-19.443-0.45143-19.336-0.24828 0.10684-3.592 1.7931-7.4305 3.7472-3.8385 1.9541-9.2083 4.4222-11.933 5.4846-2.7245 1.0624-5.2815 2.1838-5.6822 2.492-0.55815 0.42933-0.72848 5.313-0.72848 20.887 0 17.759 0.11138 20.326 0.88201 20.326 0.48511 0 3.7759-1.2955 7.3129-2.8789zm-148.94-31.483c18.752-1.2451 32.66-2.3888 43.126-3.5464 11.899-1.3161 32.93-4.3025 39.04-5.5437 2.2473-0.45649 6.3152-1.2166 9.0397-1.6891 33.414-5.7952 69.415-19.031 74.605-27.429 1.7157-2.7761 1.4701-4.433-1.0281-6.9342-11.895-11.91-63.281-23.218-127.19-27.991-20.198-1.5084-35.349-2.1595-59.875-2.5729-67.581-1.1391-124.41 2.152-170.62 9.88-36.004 6.0219-62.502 15.067-66.438 22.679-0.84028 1.6249-0.83404 1.9461 0.07506 3.8619 2.6408 5.565 15.199 12.17 35.184 18.505 12.862 4.0772 31.731 8.7493 41.308 10.228 1.8016 0.27817 5.2694 0.91369 7.7062 1.4123 2.4368 0.49857 9.7799 1.689 16.318 2.6455 24.75 3.6206 45.747 5.522 78.034 7.066 13.155 0.62912 68.543 0.23741 80.716-0.57084z" fill="#280b0b" stroke-width=".45982"/></svg>
