<svg enable-background="new 0 0 491.52 491.52" version="1.1" viewBox="0 0 491.52 491.52" xml:space="preserve" xmlns="http://www.w3.org/2000/svg">
	<path d="m448.02 0h-76.841c-23.982 0-43.5 19.497-43.5 43.5v1.577c-13.251-2.683-26.931-4.116-40.96-4.116h-81.92c-112.93-1e-3 -204.8 91.872-204.8 204.8s91.873 204.8 204.8 204.8h81.92c14.029 0 27.709-1.434 40.96-4.137v1.597c0 23.982 19.517 43.499 43.5 43.499h76.841c23.982 0 43.499-19.517 43.499-43.499v-404.52c0-24.003-19.517-43.5-43.499-43.5zm-364.87 267.78c0.266 2.417 0.737 4.731 1.085 7.127 0.696 4.792 1.393 9.564 2.417 14.254 0.594 2.744 1.372 5.386 2.089 8.09 1.085 4.219 2.212 8.397 3.563 12.493 0.922 2.785 1.987 5.509 3.011 8.233 1.475 3.871 2.99 7.701 4.669 11.448 1.229 2.724 2.539 5.366 3.871 8.008 1.823 3.625 3.727 7.188 5.755 10.691 1.475 2.56 3.011 5.079 4.608 7.557 2.171 3.42 4.485 6.758 6.861 10.035 1.7 2.335 3.4 4.669 5.202 6.943 2.581 3.256 5.304 6.369 8.069 9.462 1.843 2.068 3.666 4.178 5.612 6.164 3.052 3.154 6.267 6.103 9.523 9.052 1.495 1.352 2.847 2.847 4.383 4.157-65.496-21.484-112.91-83.169-112.91-155.73s47.411-134.27 112.91-155.73c-1.536 1.311-2.888 2.806-4.383 4.157-3.256 2.949-6.472 5.898-9.523 9.032-1.946 2.007-3.768 4.117-5.632 6.185-2.744 3.092-5.468 6.185-8.049 9.441-1.802 2.273-3.502 4.608-5.202 6.963-2.376 3.277-4.69 6.595-6.861 10.015-1.597 2.499-3.133 5.018-4.608 7.578-2.028 3.502-3.932 7.045-5.755 10.67-1.331 2.642-2.642 5.304-3.871 8.008-1.679 3.748-3.195 7.598-4.669 11.448-1.024 2.744-2.089 5.448-3.011 8.253-1.352 4.076-2.478 8.274-3.563 12.472-0.717 2.703-1.495 5.366-2.089 8.11-1.024 4.669-1.72 9.462-2.417 14.254-0.328 2.376-0.819 4.71-1.085 7.107-0.778 7.25-1.229 14.582-1.229 22.036 1e-3 7.435 0.452 14.767 1.23 22.017zm80.691-21.729v-0.287c0-32.563 12.657-63.283 35.615-86.467 7.987-8.028 20.931-8.131 28.979-0.143 8.028 7.946 8.11 20.91 0.143 28.959-15.339 15.483-23.777 35.942-23.777 57.651 0 11.305-9.155 20.623-20.48 20.623s-20.48-9.011-20.48-20.336zm124.07 122.59h-1.188c-32.727 0-63.529-12.759-86.712-35.901-8.028-7.987-8.028-20.971-0.041-28.979 7.987-7.987 20.951-8.008 28.959-0.02 15.462 15.442 35.983 23.941 57.795 23.941 11.325 0 21.074 9.155 21.074 20.48-1e-3 11.304-8.562 20.479-19.887 20.479zm-1.188-204.8c-11.326 0-20.787-9.175-20.787-20.48 0-11.325 8.868-20.48 20.193-20.48v20.48l0.061-20.48h0.041c32.952 0 63.549 12.575 86.712 35.389 8.049 7.926 8.131 20.91 0.205 28.959-4.014 4.076-9.298 6.103-14.582 6.103-5.202 0-10.383-1.966-14.377-5.878-15.441-15.237-35.86-23.613-57.466-23.613zm58.798 168.18c-8.09-7.926-8.212-20.869-0.328-28.959 15.135-15.442 23.45-35.799 23.45-57.303 0-11.325 9.155-20.931 20.48-20.931s20.48 8.724 20.48 20.029v0.901c0 32.276-12.472 62.812-35.123 85.955-4.014 4.096-9.318 6.144-14.643 6.144-5.161 1e-3 -10.343-1.925-14.316-5.836zm105.04 116c0 1.393-1.147 2.539-2.539 2.539h-76.841c-1.393 0-2.539-1.147-2.539-2.539v-14.684c7.68-3.379 15.053-7.291 22.2-11.551 1.085-0.635 2.15-1.29 3.215-1.946 6.554-4.055 12.882-8.417 18.924-13.169 0.512-0.389 1.044-0.758 1.557-1.147 6.574-5.284 12.841-10.957 18.719-16.998 0.43-0.43 0.799-0.901 1.208-1.331 5.202-5.407 10.035-11.141 14.623-17.121 0.451-0.594 1.024-1.106 1.475-1.72v79.667zm0-324.88c-0.451-0.594-1.024-1.106-1.475-1.72-4.588-5.96-9.421-11.694-14.623-17.121-0.41-0.43-0.778-0.901-1.208-1.311-5.878-6.062-12.145-11.715-18.719-16.998-0.512-0.41-1.044-0.758-1.557-1.167-6.042-4.731-12.37-9.093-18.924-13.148-1.065-0.655-2.13-1.311-3.215-1.966-7.148-4.239-14.52-8.172-22.2-11.53v-14.685c0-1.413 1.147-2.539 2.539-2.539h76.841c1.393 0 2.539 1.126 2.539 2.539v79.646z"/>
</svg>
