<svg width="459.06px" height="459.06px" enable-background="new 0 0 459.065 459.065" version="1.1" viewBox="0 0 459.06 459.06" xml:space="preserve" xmlns="http://www.w3.org/2000/svg">
<g fill="#280b0b">
	<g fill="#280b0b">
		<path d="m423 8.058c-1.057-4.466-4.54-8.203-10.521-8.054-73.367 1.788-124.16 1.877-197.54 1.882-0.833 0-1.602 0.094-2.338 0.236-0.739-0.142-1.508-0.236-2.341-0.236-73.375 0-90.312-0.094-163.67-1.882-5.984-0.145-9.463 3.593-10.524 8.054-0.343 1.036-0.625 2.107-0.764 3.229-1.762 14.239 0.467 27.949 6.162 40.964 0.67 5.035 4.243 9.673 10.768 9.833 2.168 0.053 4.275 0.104 6.345 0.155 3.931 34.769 19.692 61.941 46.646 84.998 27.863 23.826 45.438 45.801 69.657 73.61-48.81 33.005-88.255 114.89-98.724 177.55-6.094 0.147-12.189 0.244-18.283 0.442-1.062 0.035-2.016 0.218-2.922 0.467-7.086-0.416-14.543 5.144-11.72 13.822 3.407 10.476 5.695 21.13 7.525 31.981 0.011 0.091 0.056 0.162 0.076 0.243 0.541 5.154 4.119 9.923 10.812 9.923 53.344 5e-3 106.66 0.208 159.9 3.763 0.277 0.025 0.525-0.163 0.754-0.437 1.171 0.34 2.455 0.538 3.925 0.437 53.248-3.555 117.86-3.758 171.19-3.763 6.692 0 10.268-4.769 10.812-9.923 0.025-0.086 0.065-0.157 0.076-0.243 1.833-10.852 4.123-21.506 7.525-31.981 2.823-8.679-4.637-14.238-11.721-13.822-0.903-0.254-1.868-0.437-2.925-0.467-6.093-0.198-12.187-0.295-18.28-0.442-10.471-62.657-49.917-144.54-98.727-177.55 24.223-27.814 41.792-49.784 69.655-73.61 26.959-23.057 42.711-50.229 46.651-84.998 2.062-0.051 4.179-0.096 6.337-0.155 6.525-0.16 10.105-4.799 10.775-9.833 5.688-13.015 7.922-26.725 6.165-40.964-0.14-1.121-0.414-2.193-0.76-3.229zm-32.829 413.09c-0.919 3.829-1.711 7.692-2.453 11.572-50.109 0.036-111.48 0.401-161.5 3.737-1.381 0.097-2.595 0.432-3.712 0.884-0.287-0.518-0.602-0.858-0.962-0.884-50.018-3.336-100.1-3.701-150.2-3.737-0.744-3.88-1.534-7.743-2.455-11.572 50.891-1.422 101.76-1.376 152.65 0.264 0.302 0.011 0.561-0.224 0.808-0.554 1.157 0.366 2.417 0.6 3.867 0.554 50.897-1.64 113.06-1.686 163.95-0.264zm-131.09-204.85c-3.108 4.096-2.631 8.127-0.386 11.154 0.67 2.295 2.062 4.463 4.438 6.169 42.371 30.443 85.858 108.57 97.051 164.23-40.888-0.655-93.06-0.325-133.96 0.99-1.404 0.046-2.631 0.345-3.768 0.767-0.271-0.452-0.569-0.757-0.912-0.767-40.89-1.315-81.778-1.646-122.66-0.99 11.189-55.66 54.677-133.78 97.045-164.23 2.376-1.706 3.763-3.874 4.44-6.169 2.25-3.021 2.725-7.053-0.386-11.154-40.751-53.71-108.98-80.598-118.85-153.52 49.14 1.157 69.678 1.528 131.01 3.067 0.163 5e-3 0.297-0.031 0.455-0.031 0.16 0 0.294 0.036 0.457 0.031 61.329-1.534 115.73-1.91 164.87-3.067-9.864 72.923-78.092 99.816-118.84 153.52zm139.43-176.62c-69.334 1.582-116.12 1.861-185.46 3.598-0.163 7e-3 -0.297 0.048-0.457 0.058-0.157-0.01-0.292-0.051-0.455-0.058-69.334-1.737-82.255-2.011-151.6-3.598-2.054-5.474-3.062-11.131-3.24-16.895 69.787 1.549 83.152 1.676 152.95 1.681 0.833 0 1.602-0.094 2.341-0.234 0.736 0.14 1.508 0.234 2.339 0.234 69.802 0 117.03-0.132 186.82-1.681-0.183 5.763-1.193 11.421-3.25 16.895z"/>
		<path d="m135.94 116.75c-3.527 3.785-4.753 9.82-0.203 14.678 25.984 27.73 52.913 38.593 81.431 63.731 1.513 1.331 3.125 2.084 4.748 2.468 2.999 2.523 7.241 3.473 11.662 0.962 37.552-21.335 67.725-35.828 92.317-71.076 5.394-7.721-1.579-15.133-9.003-15.435-1.107-0.358-2.315-0.587-3.707-0.543-56.056 1.699-112.12 1.648-168.17 0-4.546-0.143-7.552 2.13-9.075 5.215zm159.28 16.424c-18.778 23.499-40.832 27.929-66.684 43.643-21.345-19.015-41.822-23.003-61.682-43.554 42.789 0.927 85.574 0.927 128.37-0.089z"/>
		<path d="m223.24 247.77c-1.805-0.07-3.725 0.341-5.69 1.498-43.792 25.888-72.663 66.821-84.538 116.1-0.889 3.692 0.079 6.76 1.955 9.034 0.66 4.596 3.994 8.49 10.057 7.952 55.987-4.997 112.06-3.52 168.16-1.772 7.384 0.229 10.74-5.824 10.166-11.526 0.457-1.625 0.568-3.438 0.081-5.454-12.177-50.444-43.27-92.526-89.85-116.1-3.81-1.925-7.472-1.464-10.346 0.268zm76.858 111.19c-47.911-1.427-95.801-2.239-143.64 1.3 11.809-38.831 35.365-70.73 70.817-92.018 36.344 19.836 60.881 51.583 72.819 90.718z"/>
	</g>
</g>
<g fill="#d0e8f9" stroke-width="1.6464">
  <path d="m223.67 171c-2.8603-2.2477-13.652-9.2123-23.98-15.477-10.329-6.2646-21.318-13.522-24.42-16.127l-5.6397-4.7366h123.36l-9.8659 8.6814c-5.4263 4.7748-19.854 13.871-32.061 20.214l-22.195 11.532z"/>
  <path d="m159 356.26c0-3.6261 14.476-32.864 20.879-42.171 8.457-12.292 26.082-29.978 38.143-38.276l9.2941-6.3945 10.183 6.4249c5.6009 3.5337 17.001 13.423 25.334 21.976 11.956 12.272 17.351 20.029 25.587 36.787 10.122 20.597 10.294 21.249 5.7156 21.678-15.296 1.4341-135.14 1.4132-135.14-0.0236z"/>
  <path d="m184.62 23.571c5.486-0.43126 13.937-0.42606 18.78 0.01156 4.8429 0.43762 0.35437 0.79047-9.9746 0.78412-10.329-0.0064-14.291-0.36441-8.8053-0.79568z"/>
  <path d="m105.5 40.39c-43.567-0.74896-44.124-0.81545-45.356-5.4124-3.1476-11.743-16.044-10.914 169.85-10.914h171.16l-1.3144 6.26c-0.72291 3.443-1.9197 6.8957-2.6595 7.6727-1.5727 1.6518-227.15 3.5031-291.68 2.3939z"/>
  <path d="m189.25 434.09c-14.92-0.88662-47.55-1.7191-72.511-1.8499l-45.385-0.23789v-10.433h158.59c162.81 0 162.03-0.0372 156.99 7.5117-1.0362 1.5513-25.2 2.7362-74.566 3.6563-40.168 0.74869-78.198 1.7221-84.51 2.1632-6.3121 0.44109-23.684 0.0766-38.603-0.81007z"/>
</g>
</svg>
